<svg width="25" height="25" viewBox="0 0 25 25" fill="none" xmlns="http://www.w3.org/2000/svg">
<circle cx="12.5" cy="12.5" r="12.5" fill="#EE0000"/>
<path d="M20 12.5C20 12.6658 19.9342 12.8247 19.8169 12.9419C19.6997 13.0592 19.5408 13.125 19.375 13.125H13.125V19.375C13.125 19.5408 13.0592 19.6997 12.9419 19.8169C12.8247 19.9342 12.6658 20 12.5 20C12.3342 20 12.1753 19.9342 12.0581 19.8169C11.9408 19.6997 11.875 19.5408 11.875 19.375V13.125H5.625C5.45924 13.125 5.30027 13.0592 5.18306 12.9419C5.06585 12.8247 5 12.6658 5 12.5C5 12.3342 5.06585 12.1753 5.18306 12.0581C5.30027 11.9408 5.45924 11.875 5.625 11.875H11.875V5.625C11.875 5.45924 11.9408 5.30027 12.0581 5.18306C12.1753 5.06585 12.3342 5 12.5 5C12.6658 5 12.8247 5.06585 12.9419 5.18306C13.0592 5.30027 13.125 5.45924 13.125 5.625V11.875H19.375C19.5408 11.875 19.6997 11.9408 19.8169 12.0581C19.9342 12.1753 20 12.3342 20 12.5Z" fill="white"/>
</svg>
