<svg width="60" height="60" viewBox="0 0 60 60" fill="none" xmlns="http://www.w3.org/2000/svg">
<circle cx="30" cy="30" r="30" fill="#D9D9D9"/>
<path d="M43.2692 25.577H34.423V16.7308C34.423 15.5577 33.957 14.4327 33.1275 13.6032C32.298 12.7737 31.173 12.3077 29.9999 12.3077C28.8269 12.3077 27.7018 12.7737 26.8723 13.6032C26.0429 14.4327 25.5768 15.5577 25.5768 16.7308L25.7339 25.577H16.7307C15.5576 25.577 14.4326 26.043 13.6031 26.8725C12.7736 27.7019 12.3076 28.827 12.3076 30C12.3076 31.1731 12.7736 32.2981 13.6031 33.1276C14.4326 33.9571 15.5576 34.4231 16.7307 34.4231L25.7339 34.2661L25.5768 43.2693C25.5768 44.4424 26.0429 45.5674 26.8723 46.3969C27.7018 47.2264 28.8269 47.6924 29.9999 47.6924C31.173 47.6924 32.298 47.2264 33.1275 46.3969C33.957 45.5674 34.423 44.4424 34.423 43.2693V34.2661L43.2692 34.4231C44.4422 34.4231 45.5673 33.9571 46.3967 33.1276C47.2262 32.2981 47.6922 31.1731 47.6922 30C47.6922 28.827 47.2262 27.7019 46.3967 26.8725C45.5673 26.043 44.4422 25.577 43.2692 25.577Z" fill="#FFFEFE"/>
</svg>
