<svg width="29" height="27" viewBox="0 0 29 27" fill="none" xmlns="http://www.w3.org/2000/svg">
<path d="M27.6185 25.3351C25.413 21.5987 21.8776 19.0477 17.7816 18.128C19.7279 17.3466 21.337 15.9272 22.3339 14.1123C23.3308 12.2974 23.6537 10.1996 23.2473 8.17733C22.8409 6.15507 21.7306 4.33383 20.1059 3.02475C18.4812 1.71567 16.4431 1 14.3397 1C12.2363 1 10.1982 1.71567 8.5735 3.02475C6.94883 4.33383 5.83846 6.15507 5.43209 8.17733C5.02572 10.1996 5.34856 12.2974 6.34545 14.1123C7.34235 15.9272 8.95144 17.3466 10.8978 18.128C6.80709 19.0437 3.26641 21.5987 1.06084 25.3351C0.99699 25.4546 0.982771 25.5938 1.02115 25.7234C1.05953 25.853 1.14753 25.9631 1.26678 26.0307C1.38603 26.0982 1.52731 26.118 1.66109 26.0859C1.79488 26.0538 1.91083 25.9723 1.98472 25.8583C4.5935 21.4352 9.2156 18.7939 14.3397 18.7939C19.4638 18.7939 24.0859 21.4352 26.6947 25.8583C26.7415 25.9378 26.8088 26.0038 26.8899 26.0498C26.971 26.0957 27.063 26.1199 27.1566 26.12C27.2505 26.1203 27.3427 26.0959 27.4236 26.0494C27.546 25.9799 27.6353 25.8656 27.6719 25.7317C27.7084 25.5978 27.6892 25.4551 27.6185 25.3351ZM6.32912 9.89782C6.32912 8.34535 6.79893 6.82774 7.67915 5.53691C8.55936 4.24607 9.81044 3.23999 11.2742 2.64589C12.7379 2.05178 14.3486 1.89634 15.9025 2.19921C17.4564 2.50208 18.8837 3.24967 20.004 4.34743C21.1243 5.44519 21.8873 6.84383 22.1963 8.36647C22.5054 9.88911 22.3468 11.4674 21.7405 12.9017C21.1342 14.336 20.1075 15.5619 18.7901 16.4244C17.4728 17.2869 15.924 17.7473 14.3397 17.7473C12.2159 17.7448 10.1798 16.9171 8.6781 15.4455C7.17636 13.974 6.33159 11.9789 6.32912 9.89782Z" fill="white" stroke="white"/>
</svg>
