<svg width="13" height="25" viewBox="0 0 13 25" fill="none" xmlns="http://www.w3.org/2000/svg">
<path d="M5.13889 25V22.0139C3.91204 21.7361 2.85278 21.2037 1.96111 20.4167C1.06945 19.6296 0.415741 18.5185 0 17.0833L2.56944 16.0417C2.91667 17.1528 3.43194 17.9977 4.11528 18.5764C4.79861 19.1551 5.69537 19.4444 6.80556 19.4444C7.75463 19.4444 8.55926 19.2301 9.21944 18.8014C9.87963 18.3727 10.2093 17.7074 10.2083 16.8056C10.2083 15.9954 9.9537 15.3532 9.44444 14.8792C8.93519 14.4051 7.75463 13.8667 5.90278 13.2639C3.91204 12.6389 2.5463 11.8921 1.80556 11.0236C1.06482 10.1551 0.694444 9.0963 0.694444 7.84722C0.694444 6.34259 1.18056 5.17361 2.15278 4.34028C3.125 3.50694 4.12037 3.03241 5.13889 2.91667V0H7.91667V2.91667C9.07407 3.10185 10.0292 3.52454 10.7819 4.18472C11.5347 4.84491 12.0843 5.64907 12.4306 6.59722L9.86111 7.70833C9.58333 6.96759 9.18981 6.41204 8.68056 6.04167C8.1713 5.6713 7.47685 5.48611 6.59722 5.48611C5.5787 5.48611 4.80324 5.71204 4.27083 6.16389C3.73843 6.61574 3.47222 7.17685 3.47222 7.84722C3.47222 8.61111 3.81944 9.21296 4.51389 9.65278C5.20833 10.0926 6.41204 10.5556 8.125 11.0417C9.72222 11.5046 10.9319 12.2398 11.7542 13.2472C12.5764 14.2546 12.987 15.4176 12.9861 16.7361C12.9861 18.3796 12.5 19.6296 11.5278 20.4861C10.5556 21.3426 9.35185 21.875 7.91667 22.0833V25H5.13889Z" fill="white"/>
</svg>
