<svg width="25" height="23" viewBox="0 0 25 23" fill="none" xmlns="http://www.w3.org/2000/svg">
<path d="M1.13636 1.13636V0C0.834981 0 0.545943 0.119724 0.332833 0.332833C0.119724 0.545943 0 0.834981 0 1.13636H1.13636ZM13.6364 1.13636H14.7727C14.7727 0.834981 14.653 0.545943 14.4399 0.332833C14.2268 0.119724 13.9377 0 13.6364 0V1.13636ZM13.6364 7.95455V6.81818C13.335 6.81818 13.0459 6.93791 12.8328 7.15102C12.6197 7.36412 12.5 7.65316 12.5 7.95455H13.6364ZM1.13636 2.27273H13.6364V0H1.13636V2.27273ZM12.5 1.13636V19.3182H14.7727V1.13636H12.5ZM2.27273 17.0455V1.13636H0V17.0455H2.27273ZM13.6364 9.09091H19.3182V6.81818H13.6364V9.09091ZM22.7273 12.5V17.0455H25V12.5H22.7273ZM14.7727 19.3182V7.95455H12.5V19.3182H14.7727ZM20.1216 20.1216C19.9085 20.3346 19.6195 20.4543 19.3182 20.4543C19.0169 20.4543 18.7279 20.3346 18.5148 20.1216L16.908 21.7284C17.5473 22.3675 18.4142 22.7265 19.3182 22.7265C20.2222 22.7265 21.0891 22.3675 21.7284 21.7284L20.1216 20.1216ZM18.5148 18.5148C18.7279 18.3017 19.0169 18.1821 19.3182 18.1821C19.6195 18.1821 19.9085 18.3017 20.1216 18.5148L21.7284 16.908C21.0891 16.2688 20.2222 15.9098 19.3182 15.9098C18.4142 15.9098 17.5473 16.2688 16.908 16.908L18.5148 18.5148ZM6.48523 20.1216C6.27213 20.3346 5.98314 20.4543 5.68182 20.4543C5.3805 20.4543 5.09151 20.3346 4.87841 20.1216L3.27159 21.7284C3.91089 22.3675 4.77785 22.7265 5.68182 22.7265C6.58579 22.7265 7.45275 22.3675 8.09205 21.7284L6.48523 20.1216ZM4.87841 18.5148C5.09151 18.3017 5.3805 18.1821 5.68182 18.1821C5.98314 18.1821 6.27213 18.3017 6.48523 18.5148L8.09205 16.908C7.45275 16.2688 6.58579 15.9098 5.68182 15.9098C4.77785 15.9098 3.91089 16.2688 3.27159 16.908L4.87841 18.5148ZM20.1216 18.5148C20.3443 18.7364 20.4545 19.0261 20.4545 19.3182H22.7273C22.7273 18.4477 22.3943 17.5727 21.7284 16.908L20.1216 18.5148ZM20.4545 19.3182C20.4549 19.4675 20.4256 19.6153 20.3685 19.7532C20.3113 19.8911 20.2274 20.0163 20.1216 20.1216L21.7284 21.7284C22.0453 21.4121 22.2966 21.0364 22.4681 20.6228C22.6395 20.2092 22.7275 19.7659 22.7273 19.3182H20.4545ZM17.0455 18.1818H13.6364V20.4545H17.0455V18.1818ZM18.5148 20.1216C18.4089 20.0163 18.325 19.8911 18.2679 19.7532C18.2107 19.6153 18.1815 19.4675 18.1818 19.3182H15.9091C15.9091 20.1886 16.242 21.0636 16.908 21.7284L18.5148 20.1216ZM18.1818 19.3182C18.1812 19.1689 18.2104 19.0209 18.2675 18.883C18.3247 18.7451 18.4087 18.6199 18.5148 18.5148L16.908 16.908C16.5911 17.2242 16.3397 17.5999 16.1683 18.0135C15.9969 18.4271 15.9088 18.8705 15.9091 19.3182H18.1818ZM4.87841 20.1216C4.77258 20.0163 4.68866 19.8911 4.63151 19.7532C4.57436 19.6153 4.54511 19.4675 4.54545 19.3182H2.27273C2.27273 20.1886 2.60568 21.0636 3.27159 21.7284L4.87841 20.1216ZM4.54545 19.3182C4.54486 19.1689 4.574 19.0209 4.63116 18.883C4.68832 18.7451 4.77237 18.6199 4.87841 18.5148L3.27159 16.908C2.9547 17.2242 2.70335 17.5999 2.53195 18.0135C2.36054 18.4271 2.27245 18.8705 2.27273 19.3182H4.54545ZM13.6364 18.1818H7.95455V20.4545H13.6364V18.1818ZM6.48523 18.5148C6.70795 18.7364 6.81818 19.0261 6.81818 19.3182H9.09091C9.09091 18.4477 8.75795 17.5727 8.09205 16.908L6.48523 18.5148ZM6.81818 19.3182C6.81852 19.4675 6.78927 19.6153 6.73212 19.7532C6.67498 19.8911 6.59106 20.0163 6.48523 20.1216L8.09205 21.7284C8.40893 21.4121 8.66028 21.0364 8.83169 20.6228C9.0031 20.2092 9.09119 19.7659 9.09091 19.3182H6.81818ZM22.7273 17.0455C22.7273 17.3468 22.6075 17.6359 22.3944 17.849C22.1813 18.0621 21.8923 18.1818 21.5909 18.1818V20.4545C22.4951 20.4545 23.3622 20.0954 24.0015 19.456C24.6408 18.8167 25 17.9496 25 17.0455H22.7273ZM19.3182 9.09091C20.2223 9.09091 21.0894 9.45008 21.7288 10.0894C22.3681 10.7287 22.7273 11.5959 22.7273 12.5H25C25 11.7539 24.853 11.015 24.5675 10.3257C24.282 9.63631 23.8634 9.00995 23.3358 8.48235C22.8082 7.95474 22.1819 7.53622 21.4925 7.25068C20.8032 6.96515 20.0643 6.81818 19.3182 6.81818V9.09091ZM0 17.0455C0 17.9496 0.359171 18.8167 0.9985 19.456C1.63783 20.0954 2.50494 20.4545 3.40909 20.4545V18.1818C3.10771 18.1818 2.81867 18.0621 2.60556 17.849C2.39245 17.6359 2.27273 17.3468 2.27273 17.0455H0Z" fill="white"/>
</svg>
