<svg width="60" height="42" viewBox="0 0 60 42" fill="none" xmlns="http://www.w3.org/2000/svg">
<path d="M59.8907 15.1916L56.3314 6.29723C56.0692 5.6356 55.6136 5.06831 55.024 4.66939C54.4344 4.27047 53.7382 4.05842 53.0263 4.06093H43.7288V1.52475C43.7288 1.12036 43.5681 0.732536 43.282 0.446589C42.996 0.160643 42.608 0 42.2034 0H3.55932C2.61533 0 1.71 0.374834 1.0425 1.04204C0.374999 1.70925 0 2.61418 0 3.55776V32.0198C0 32.9634 0.374999 33.8683 1.0425 34.5355C1.71 35.2027 2.61533 35.5776 3.55932 35.5776H8.28814C8.63824 37.301 9.57366 38.8504 10.9359 39.9633C12.2981 41.0762 14.0034 41.6842 15.7627 41.6842C17.5221 41.6842 19.2273 41.0762 20.5895 39.9633C21.9518 38.8504 22.8872 37.301 23.2373 35.5776H36.7627C37.1128 37.301 38.0482 38.8504 39.4105 39.9633C40.7727 41.0762 42.4779 41.6842 44.2373 41.6842C45.9966 41.6842 47.7019 41.0762 49.0641 39.9633C50.4263 38.8504 51.3618 37.301 51.7119 35.5776H56.4407C57.3847 35.5776 58.29 35.2027 58.9575 34.5355C59.625 33.8683 60 32.9634 60 32.0198V15.7558C59.9997 15.5625 59.9626 15.371 59.8907 15.1916ZM43.7288 7.11551H53.0288C53.1307 7.11541 53.2302 7.14588 53.3145 7.20297C53.3988 7.26006 53.464 7.34114 53.5017 7.43571L56.222 14.231H43.7288V7.11551ZM3.05085 3.55776C3.05085 3.42296 3.10442 3.29368 3.19978 3.19837C3.29513 3.10305 3.42447 3.0495 3.55932 3.0495H40.678V20.33H3.05085V3.55776ZM15.7627 38.6271C14.8576 38.6271 13.9728 38.3588 13.2203 37.8562C12.4677 37.3535 11.8812 36.6391 11.5348 35.8033C11.1884 34.9675 11.0978 34.0477 11.2744 33.1604C11.4509 32.2731 11.8868 31.458 12.5268 30.8183C13.1668 30.1786 13.9822 29.7429 14.8699 29.5664C15.7576 29.3899 16.6778 29.4805 17.514 29.8267C18.3502 30.173 19.0649 30.7593 19.5677 31.5115C20.0706 32.2637 20.339 33.1481 20.339 34.0528C20.339 35.266 19.8568 36.4295 18.9986 37.2873C18.1404 38.1451 16.9764 38.6271 15.7627 38.6271ZM36.7627 32.5281H23.2373C22.8872 30.8046 21.9518 29.2552 20.5895 28.1423C19.2273 27.0294 17.5221 26.4214 15.7627 26.4214C14.0034 26.4214 12.2981 27.0294 10.9359 28.1423C9.57366 29.2552 8.63824 30.8046 8.28814 32.5281H3.55932C3.42447 32.5281 3.29513 32.4745 3.19978 32.3792C3.10442 32.2839 3.05085 32.1546 3.05085 32.0198V23.3795H40.678V27.3134C39.6813 27.8406 38.8135 28.5814 38.1367 29.4829C37.4598 30.3844 36.9907 31.4242 36.7627 32.5281ZM44.2373 38.6271C43.3322 38.6271 42.4474 38.3588 41.6949 37.8562C40.9423 37.3535 40.3557 36.6391 40.0094 35.8033C39.663 34.9675 39.5724 34.0477 39.749 33.1604C39.9255 32.2731 40.3614 31.458 41.0014 30.8183C41.6414 30.1786 42.4568 29.7429 43.3445 29.5664C44.2322 29.3899 45.1523 29.4805 45.9886 29.8267C46.8248 30.173 47.5395 30.7593 48.0423 31.5115C48.5452 32.2637 48.8136 33.1481 48.8136 34.0528C48.8136 35.266 48.3314 36.4295 47.4732 37.2873C46.615 38.1451 45.451 38.6271 44.2373 38.6271ZM56.9492 32.0198C56.9492 32.1546 56.8956 32.2839 56.8002 32.3792C56.7049 32.4745 56.5755 32.5281 56.4407 32.5281H51.7119C51.358 30.8071 50.4213 29.2608 49.0597 28.1498C47.6981 27.0388 45.9949 26.4311 44.2373 26.429C44.067 26.429 43.8966 26.429 43.7288 26.4468V17.2805H56.9492V32.0198Z" fill="black"/>
</svg>
