<svg width="60" height="64" viewBox="0 0 60 64" fill="none" xmlns="http://www.w3.org/2000/svg">
<path d="M29.9989 8.62759e-07C33.9207 -0.00120315 37.7396 1.2578 40.8951 3.59222C44.0506 5.92664 46.3765 9.21353 47.5314 12.9705C48.6863 16.7274 48.6094 20.7565 47.312 24.4664C46.0146 28.1763 43.565 31.3716 40.3228 33.5834C45.9504 35.6524 50.8314 39.3625 54.3377 44.236C57.8439 49.1096 59.8148 54.9235 59.9967 60.9294C60.0137 61.2628 59.9642 61.5962 59.8509 61.9101C59.7376 62.224 59.563 62.512 59.3372 62.7574C59.1113 63.0027 58.8389 63.2004 58.5359 63.3388C58.2329 63.4772 57.9053 63.5535 57.5724 63.5633C57.2396 63.5731 56.9081 63.5161 56.5975 63.3958C56.2869 63.2755 56.0034 63.0942 55.7636 62.8625C55.5238 62.6309 55.3326 62.3536 55.2012 62.0469C55.0698 61.7402 55.0007 61.4103 54.9982 61.0765C54.7996 54.5632 52.0789 48.3834 47.4126 43.8466C42.7464 39.3098 36.5012 36.7726 30.0006 36.7726C23.5 36.7726 17.2548 39.3098 12.5886 43.8466C7.92227 48.3834 5.20156 54.5632 5.00298 61.0765C4.98309 61.7413 4.70051 62.3711 4.21743 62.8271C3.73434 63.2832 3.09031 63.5282 2.42703 63.5082C1.76374 63.4883 1.13552 63.205 0.680579 62.7208C0.225635 62.2365 -0.0187722 61.5909 0.00112646 60.926C0.183688 54.9207 2.15491 49.1075 5.6611 44.2347C9.16729 39.3618 14.048 35.6522 19.6751 33.5834C16.4329 31.3716 13.9833 28.1763 12.6858 24.4664C11.3884 20.7565 11.3115 16.7274 12.4665 12.9705C13.6214 9.21353 15.9473 5.92664 19.1028 3.59222C22.2582 1.2578 26.0771 -0.00120315 29.9989 8.62759e-07ZM16.6606 18.3844C16.6606 21.9305 18.0659 25.3314 20.5673 27.8388C23.0688 30.3463 26.4614 31.7549 29.9989 31.7549C33.5365 31.7549 36.9291 30.3463 39.4305 27.8388C41.9319 25.3314 43.3372 21.9305 43.3372 18.3844C43.3372 14.8384 41.9319 11.4375 39.4305 8.93007C36.9291 6.42261 33.5365 5.01394 29.9989 5.01394C26.4614 5.01394 23.0688 6.42261 20.5673 8.93007C18.0659 11.4375 16.6606 14.8384 16.6606 18.3844Z" fill="black"/>
</svg>
