<svg width="60" height="58" viewBox="0 0 60 58" fill="none" xmlns="http://www.w3.org/2000/svg">
<path d="M55.3846 13.8462H43.8462C43.8462 10.1739 42.3874 6.6521 39.7907 4.05544C37.1941 1.45879 33.6722 0 30 0C26.3278 0 22.8059 1.45879 20.2093 4.05544C17.6126 6.6521 16.1538 10.1739 16.1538 13.8462H4.61538C3.39131 13.8462 2.21737 14.3324 1.35181 15.198C0.486262 16.0635 0 17.2375 0 18.4615V53.0769C0 54.301 0.486262 55.4749 1.35181 56.3405C2.21737 57.206 3.39131 57.6923 4.61538 57.6923H55.3846C56.6087 57.6923 57.7826 57.206 58.6482 56.3405C59.5137 55.4749 60 54.301 60 53.0769V18.4615C60 17.2375 59.5137 16.0635 58.6482 15.198C57.7826 14.3324 56.6087 13.8462 55.3846 13.8462ZM30 4.61538C32.4482 4.61538 34.796 5.58791 36.5271 7.31901C38.2582 9.05012 39.2308 11.398 39.2308 13.8462H20.7692C20.7692 11.398 21.7418 9.05012 23.4729 7.31901C25.204 5.58791 27.5518 4.61538 30 4.61538ZM55.3846 53.0769H4.61538V18.4615H16.1538V23.0769C16.1538 23.689 16.397 24.2759 16.8298 24.7087C17.2625 25.1415 17.8495 25.3846 18.4615 25.3846C19.0736 25.3846 19.6605 25.1415 20.0933 24.7087C20.5261 24.2759 20.7692 23.689 20.7692 23.0769V18.4615H39.2308V23.0769C39.2308 23.689 39.4739 24.2759 39.9067 24.7087C40.3395 25.1415 40.9264 25.3846 41.5385 25.3846C42.1505 25.3846 42.7375 25.1415 43.1702 24.7087C43.603 24.2759 43.8462 23.689 43.8462 23.0769V18.4615H55.3846V53.0769Z" fill="black"/>
</svg>
