<svg width="27" height="27" viewBox="0 0 27 27" fill="none" xmlns="http://www.w3.org/2000/svg">
<path d="M13.6398 25.5758L25.5762 13.6394C25.7103 13.5058 25.8166 13.347 25.889 13.1721C25.9614 12.9971 25.9985 12.8096 25.998 12.6203L25.998 1.48073C25.998 1.35323 25.9474 1.23096 25.8572 1.14081C25.7671 1.05065 25.6448 1 25.5173 1L14.3777 1C14.1884 0.999552 14.0009 1.0366 13.826 1.109C13.6511 1.1814 13.4922 1.28773 13.3586 1.42184L1.42222 13.3582C1.28777 13.4922 1.1811 13.6514 1.10831 13.8267C1.03552 14.002 0.998046 14.19 0.998046 14.3798C0.998046 14.5696 1.03552 14.7575 1.10831 14.9328C1.1811 15.1081 1.28777 15.2673 1.42222 15.4013L11.6004 25.5794C11.7343 25.7139 11.8935 25.8206 12.0688 25.8934C12.2441 25.9661 12.4321 26.0036 12.6219 26.0036C12.8117 26.0036 12.9996 25.9661 13.1749 25.8934C13.3502 25.8206 13.5094 25.7139 13.6434 25.5794L13.6398 25.5758ZM12.2806 24.8956L2.10245 14.7175C2.01254 14.6274 1.96206 14.5053 1.96206 14.378C1.96206 14.2507 2.01254 14.1286 2.10245 14.0384L14.0388 2.10206C14.1288 2.01223 14.2506 1.96167 14.3777 1.96145L25.0366 1.96145L25.0366 12.6203C25.0364 12.7474 24.9858 12.8693 24.896 12.9592L12.9596 24.8956C12.8695 24.9855 12.7474 25.036 12.6201 25.036C12.4928 25.036 12.3707 24.9855 12.2806 24.8956ZM20.2294 7.73014C20.0392 7.73014 19.8533 7.67376 19.6952 7.56811C19.5371 7.46247 19.4139 7.31231 19.3411 7.13663C19.2683 6.96094 19.2493 6.76763 19.2864 6.58113C19.3235 6.39462 19.415 6.22331 19.5495 6.08885C19.684 5.95439 19.8553 5.86282 20.0418 5.82572C20.2283 5.78862 20.4216 5.80766 20.5973 5.88043C20.773 5.9532 20.9231 6.07643 21.0288 6.23454C21.1344 6.39265 21.1908 6.57854 21.1908 6.7687C21.1908 7.02369 21.0895 7.26824 20.9092 7.44854C20.7289 7.62885 20.4843 7.73014 20.2294 7.73014Z" fill="white" stroke="white"/>
</svg>
