<svg width="66" height="59" viewBox="0 0 66 59" fill="none" xmlns="http://www.w3.org/2000/svg">
<path d="M3 3H12.6423L19.874 44.1677H58.4432M19.874 34.4812H57.4548C57.7336 34.4814 58.0038 34.3845 58.2194 34.2071C58.4351 34.0296 58.5828 33.7826 58.6375 33.508L62.9766 11.7133C63.0116 11.5376 63.0073 11.3562 62.9641 11.1823C62.9209 11.0085 62.8397 10.8464 62.7266 10.7078C62.6135 10.5692 62.4711 10.4576 62.3098 10.381C62.1485 10.3044 61.9723 10.2648 61.7939 10.2649H15.0529M24.6952 53.8542C24.6952 55.1917 23.6159 56.2759 22.2846 56.2759C20.9533 56.2759 19.874 55.1917 19.874 53.8542C19.874 52.5168 20.9533 51.4326 22.2846 51.4326C23.6159 51.4326 24.6952 52.5168 24.6952 53.8542ZM58.4432 53.8542C58.4432 55.1917 57.3639 56.2759 56.0326 56.2759C54.7013 56.2759 53.622 55.1917 53.622 53.8542C53.622 52.5168 54.7013 51.4326 56.0326 51.4326C57.3639 51.4326 58.4432 52.5168 58.4432 53.8542Z" stroke="black" stroke-width="5" stroke-linecap="round" stroke-linejoin="round"/>
</svg>
